<?xml version="1.0" encoding="utf-8"?>
<!-- Generator: Adobe Illustrator 17.0.0, SVG Export Plug-In . SVG Version: 6.00 Build 0)  -->
<!DOCTYPE svg PUBLIC "-//W3C//DTD SVG 1.1//EN" "http://www.w3.org/Graphics/SVG/1.1/DTD/svg11.dtd">
<svg version="1.1" id="Layer_1" xmlns="http://www.w3.org/2000/svg" xmlns:xlink="http://www.w3.org/1999/xlink" x="0px" y="0px"
	 width="250px" height="250px" viewBox="0 0 250 250" enable-background="new 0 0 250 250" xml:space="preserve">
<g>
	<path fill="#1AA2B9" d="M156.786,123.087h-2.081c-0.892,0-1.289,0.247-1.437,1.04l-0.05,0.298
		c-0.099,0.495-0.594,0.742-1.288,0.742c-0.644,0-1.486-0.198-2.23-0.495l-2.675-1.041c-0.064-0.025-0.129-0.048-0.195-0.072
		c-0.225,1.682-1.229,2.434-3.189,2.434h-4.906c-0.187,0.606-0.283,1.292-0.283,2.048c0,1.585,0.496,1.982,1.585,1.982h2.081
		c0.892,0,1.288-0.247,1.437-1.04l0.05-0.297c0.099-0.545,0.545-0.743,1.238-0.743c0.644,0,1.437,0.149,2.279,0.496l2.677,1.04
		c1.04,0.397,2.278,0.694,4.013,0.694c2.873,0,4.558-1.635,4.558-4.806C158.372,123.78,157.876,123.087,156.786,123.087"/>
	<path fill="#231F20" d="M47.799,46.107c0.355,0,0.555,0.178,0.555,0.556v7.111c0,0.4-0.244,0.623-0.489,0.778
		c-1.045,0.622-2.689,1.111-5.067,1.111c-4.8,0-7.6-2.489-7.6-8.09c0-5.556,2.822-8.066,7.8-8.066c2.001,0,3.6,0.533,4.489,1.066
		c0.333,0.178,0.467,0.356,0.333,0.689l-0.555,1.378c-0.133,0.333-0.333,0.445-0.756,0.267c-0.689-0.289-1.755-0.645-3.111-0.645
		c-3.533,0-5.044,1.556-5.044,5.311c0,3.8,1.556,5.334,4.8,5.334c0.933,0,1.845-0.2,2.378-0.445v-3.933H43.11
		c-0.378,0-0.555-0.156-0.555-0.511v-1.355c0-0.356,0.177-0.556,0.555-0.556H47.799z"/>
	<path fill="#231F20" d="M68.689,47.596c0,5.4-2.578,8.067-6.956,8.067c-4.334,0-6.912-2.667-6.912-8.067
		c0-5.4,2.578-8.089,6.934-8.089S68.689,42.196,68.689,47.596 M65.511,47.596c0-3.578-1.245-5.378-3.756-5.378
		c-2.533,0-3.778,1.8-3.778,5.378c0,3.578,1.245,5.356,3.778,5.356C64.266,52.952,65.511,51.174,65.511,47.596"/>
	<path fill="#231F20" d="M79.222,55.418c-0.378,0-0.555-0.155-0.689-0.533l-4.934-14.489c-0.133-0.378,0.044-0.623,0.422-0.623
		h2.156c0.378,0,0.555,0.178,0.645,0.489l2.667,8.29l0.978,3.667h0.045l0.955-3.667l2.667-8.29c0.089-0.311,0.267-0.489,0.645-0.489
		h2.178c0.355,0,0.533,0.245,0.4,0.623l-4.911,14.489c-0.133,0.378-0.333,0.533-0.711,0.533H79.222z"/>
	<path fill="#231F20" d="M96.689,48.729v4.023H103c0.378,0,0.556,0.156,0.556,0.533v1.578c0,0.4-0.178,0.555-0.556,0.555h-8.822
		c-0.4,0-0.555-0.155-0.555-0.555V40.307c0-0.378,0.155-0.533,0.533-0.533h8.756c0.378,0,0.556,0.155,0.556,0.533v1.578
		c0,0.377-0.178,0.555-0.556,0.555h-6.222v3.711h5.934c0.355,0,0.533,0.2,0.533,0.555v1.467c0,0.355-0.178,0.555-0.533,0.555H96.689
		z"/>
	<path fill="#231F20" d="M115.711,39.773c4.311,0,6.489,1.534,6.489,5.267c0,2.711-1.467,4.223-3.823,4.733l3.778,4.956
		c0.244,0.311,0.111,0.689-0.334,0.689h-2.111c-0.4,0-0.577-0.178-0.777-0.445l-3.601-4.778h-2.067v4.666
		c0,0.401-0.178,0.556-0.555,0.556h-1.978c-0.4,0-0.556-0.155-0.556-0.556V40.307c0-0.378,0.156-0.534,0.556-0.534H115.711z
		 M115.644,47.618c2.533,0,3.444-0.822,3.444-2.578c0-1.889-0.978-2.6-3.423-2.6h-2.4v5.178H115.644z"/>
	<path fill="#231F20" d="M141.378,54.863c0,0.4-0.178,0.556-0.533,0.556h-2c-0.378,0-0.533-0.111-0.689-0.378l-6.244-10.067v9.889
		c0,0.4-0.156,0.556-0.534,0.556h-1.911c-0.4,0-0.556-0.156-0.556-0.556V40.307c0-0.378,0.156-0.533,0.556-0.533h1.955
		c0.4,0,0.555,0.089,0.711,0.355l6.245,10.09v-9.912c0-0.378,0.155-0.533,0.533-0.533h1.933c0.355,0,0.533,0.155,0.533,0.511V54.863
		z"/>
	<path fill="#231F20" d="M161.934,47.596c0,5.4-2.578,8.067-6.956,8.067c-4.334,0-6.912-2.667-6.912-8.067
		c0-5.4,2.578-8.089,6.934-8.089C159.357,39.507,161.934,42.196,161.934,47.596 M158.757,47.596c0-3.578-1.245-5.378-3.756-5.378
		c-2.533,0-3.778,1.8-3.778,5.378c0,3.578,1.245,5.356,3.778,5.356C157.512,52.952,158.757,51.174,158.757,47.596"/>
	<path fill="#231F20" d="M179.667,55.418c-0.4,0-0.555-0.155-0.555-0.555V40.307c0-0.378,0.155-0.534,0.533-0.534h4.289
		c5.022,0,7.756,2.067,7.756,7.668c0,5.889-2.733,7.978-7.734,7.978H179.667z M182.223,42.529v10.134h1.622
		c3.022,0,4.689-1.045,4.689-5.222c0-3.889-1.667-4.912-4.711-4.912H182.223z"/>
	<path fill="#231F20" d="M210.691,47.574c0,5.334-2.445,8.067-6.4,8.067c-3.956,0-6.4-2.733-6.4-8.044c0-5.356,2.445-8.09,6.4-8.09
		C208.246,39.507,210.691,42.24,210.691,47.574 M207.602,47.574c0-3.578-1.089-5.378-3.311-5.378c-2.2,0-3.289,1.8-3.289,5.378
		c0,3.601,1.089,5.4,3.289,5.4C206.513,52.974,207.602,51.174,207.602,47.574"/>
	<path fill="#F39020" d="M194.075,179.444c-6.207,0-9.445-4.408-9.445-16.192c0-11.784,3.238-16.192,9.445-16.192
		c6.207,0,9.445,4.407,9.445,16.192C203.52,175.036,200.281,179.444,194.075,179.444 M194.075,130.329
		c-14.433,0-24.808,6.383-28.161,21.339l0.905,2.768l12.179,37.241c0.186,0.539,0.272,1.035,0.269,1.479
		c4.208,2.055,9.202,3.019,14.809,3.019c17.721,0,29.325-9.625,29.325-32.923C223.4,139.954,211.795,130.329,194.075,130.329"/>
	<path fill="#42A944" d="M125.659,131.858h-13.133c-2.249,0-3.238,0.989-3.238,3.238v19.521H94.894v-19.521
		c0-2.249-0.989-3.238-3.238-3.238H78.523c-0.143,0-0.281,0.004-0.414,0.012c1.957,0.119,2.824,1.121,2.824,3.226v57.211
		c0,2.106-0.867,3.107-2.824,3.226c0.133,0.008,0.271,0.012,0.414,0.012h13.133c2.249,0,3.238-0.989,3.238-3.238v-20.419h14.393
		v20.419c0,2.249,0.989,3.238,3.238,3.238h13.133h-5.402c-2.159,0-3.238-1.529-2.429-3.868l11.069-33.848v-22.734
		C128.897,132.847,127.907,131.858,125.659,131.858"/>
	<path fill="#F7BD13" d="M156.508,131.858h-16.192c-2.339,0-3.238,0.989-3.868,2.879l-7.552,23.093v34.477
		c0,2.249-0.99,3.238-3.238,3.238h8.271c2.249,0,3.418-0.989,3.958-2.968l10.435-41.469h0.253h0.016l5.161,20.689l5.183,20.78
		c0.101,0.371,0.225,0.708,0.373,1.009c0.643,1.307,1.758,1.96,3.585,1.96h13.673c1.619,0,2.631-0.86,2.694-2.277
		c0.002-0.037,0.003-0.074,0.003-0.112c-9.092-4.441-14.516-13.978-14.516-29.905c0-4.323,0.4-8.176,1.164-11.584l-5.537-16.932
		c-0.011-0.035-0.024-0.067-0.035-0.101c-0.106-0.306-0.218-0.587-0.345-0.844l-0.01-0.023
		C159.359,132.512,158.409,131.858,156.508,131.858"/>
	<path fill="#F17820" d="M165.913,151.669c-0.764,3.407-1.164,7.261-1.164,11.584c0,15.926,5.423,25.464,14.516,29.905
		c0.004-0.444-0.082-0.94-0.269-1.479l-12.179-37.241L165.913,151.669z"/>
	<path fill="#5B9345" d="M128.897,157.83l-11.069,33.848c-0.809,2.339,0.27,3.868,2.429,3.868h5.402
		c2.249,0,3.238-0.989,3.238-3.238V157.83z"/>
	<path fill="#128E41" d="M77.694,131.858H65.281c-2.249,0-3.238,0.989-3.238,3.238v27.526L46.21,133.837
		c-0.809-1.44-1.619-1.979-3.868-1.979H29.839c-2.249,0-3.238,0.989-3.238,3.238v57.211c0,2.249,0.989,3.238,3.238,3.238h12.413
		c2.249,0,3.239-0.989,3.239-3.238v-27.526l15.831,28.785c0.809,1.44,1.619,1.979,3.868,1.979h12.503
		c0.143,0,0.281-0.004,0.414-0.012c-1.957-0.119-2.824-1.121-2.824-3.226v-57.211c0-2.106,0.868-3.107,2.824-3.226
		C77.975,131.862,77.837,131.858,77.694,131.858"/>
	<path fill="#158E45" d="M78.108,131.87c-1.957,0.119-2.824,1.12-2.824,3.226v57.211c0,2.106,0.867,3.107,2.824,3.226
		c1.957-0.119,2.824-1.12,2.824-3.226v-57.211C80.932,132.99,80.065,131.989,78.108,131.87"/>
	<path fill="#B7262F" d="M80.059,62.306H68.095c-1.889,0-2.968,0.63-3.688,1.799L50.554,87.943L36.701,64.104
		c-0.719-1.169-1.799-1.799-3.688-1.799H21.049c-2.249,0-3.238,0.989-3.238,3.238v57.211c0,2.249,0.989,3.238,3.238,3.238h12.413
		c2.249,0,3.238-0.989,3.238-3.238V93.52l11.515,19.34c0.45,0.719,1.079,1.35,2.338,1.35c1.26,0,1.889-0.63,2.339-1.35l11.515-19.34
		v29.235c0,2.249,0.989,3.238,3.238,3.238h12.413h-4.542c-1.619,0-2.631-0.86-2.694-2.277v-0.009
		c-0.008-0.192,0.006-0.397,0.033-0.61c0.04-0.306,0.113-0.63,0.232-0.972l10.209-31.218V65.544
		C83.297,63.295,82.308,62.306,80.059,62.306"/>
	<path fill="#224181" d="M209.431,62.306H193.24c-2.339,0-3.238,0.989-3.868,2.879l-15.284,46.738l4.028,6.646l0.003,0.004
		l2.045,3.373c1.35,2.159,0.45,4.048-1.799,4.048h-5.184h12.605h1.069h30.461h12.177c2.159,0,3.239-1.529,2.429-3.868
		l-18.621-56.941C212.67,63.295,211.77,62.306,209.431,62.306"/>
	<path fill="#FFFFFF" d="M200.57,82.25l-9.795,29.294c-0.282,0.842,0.684,1.55,1.402,1.026l25.314-18.435
		c0.714-0.52,0.346-1.65-0.537-1.65h-31.236c-0.881,0-1.25,1.124-0.541,1.647l25.061,18.451c0.712,0.525,1.679-0.169,1.41-1.012
		l-9.342-29.31C202.037,81.422,200.85,81.413,200.57,82.25"/>
	<path fill="#146495" d="M146.88,91.811v-0.895v-4.205v-8.214v-0.895h6.477c5.667,0,7.916,2.159,7.916,6.657
		c0,0.156-0.009,0.297-0.013,0.447c0.004,0.149,0.013,0.291,0.013,0.447c0,1.601-0.287,2.904-0.909,3.921l-0.004-0.006
		c-0.772,1.262-2.062,2.082-3.973,2.473l-0.03,0.006c-0.343,0.069-0.705,0.125-1.088,0.167l-0.037,0.003
		c-0.165,0.018-0.335,0.032-0.508,0.045c-0.052,0.004-0.104,0.008-0.157,0.011c-0.142,0.009-0.287,0.016-0.435,0.021
		c-0.056,0.002-0.111,0.005-0.169,0.006c-0.199,0.006-0.401,0.01-0.608,0.01H146.88z M153.626,62.306h-2.156l-0.003,0.005h-4.588
		v-0.005h-16.191c-2.249,0-3.239,0.989-3.239,3.238v35.764l6.808,20.817c0.809,2.338-0.27,3.868-2.429,3.868h-1.14h8.048
		c0.597-1.935,2.123-3.055,4.424-3.055c1.487,0,2.67,0.262,3.67,0.622c0.033-0.248,0.049-0.516,0.049-0.805v-15.647v-0.005h4.588
		l0.003,0.005h0.001l9.261,16.276c0.99,1.709,2.249,2.609,4.498,2.609h7.949c-1.619,0-2.631-0.86-2.694-2.277
		c-0.021-0.472,0.064-1.006,0.265-1.591l3.337-10.203l-4.504-7.431c0,0,9.075-3.765,10.759-13.957
		c0.294-1.779,0.508-3.712,0.53-5.828c-0.022-2.116-0.219-4.052-0.53-5.828c-1.765-10.064-10.759-13.957-10.759-13.957
		C165.338,63.088,159.977,62.306,153.626,62.306"/>
	<path fill="#155D7D" d="M143.16,122.938c-2.301,0-3.827,1.121-4.424,3.055h4.905c1.96,0,2.963-0.752,3.189-2.433
		C145.831,123.2,144.648,122.938,143.16,122.938"/>
	<path fill="#283469" d="M174.088,111.922l-3.337,10.204c-0.202,0.584-0.287,1.118-0.265,1.591c0.063,1.416,1.075,2.277,2.694,2.277
		h5.184c2.249,0,3.148-1.89,1.799-4.048l-2.045-3.374l-0.002-0.004L174.088,111.922z"/>
	<path fill="#D91C21" d="M111.769,62.306H95.577c-1.9,0-2.85,0.653-3.477,1.911l-0.011,0.023c-0.126,0.256-0.239,0.538-0.344,0.844
		c-0.012,0.034-0.024,0.066-0.036,0.101l-6.442,19.7l-1.969,6.023v31.848c0,2.249-0.989,3.238-3.238,3.238h9.131
		c1.827,0,2.942-0.653,3.585-1.96l0.015-0.033c0.141-0.294,0.26-0.618,0.358-0.976l10.345-41.469h0.016h0.001h0.253l10.435,41.469
		c0.54,1.979,1.709,2.968,3.958,2.968h12.533c-2.249,0-3.239-0.989-3.239-3.238V103.87v-2.562l-11.813-36.124
		C115.007,63.295,114.108,62.306,111.769,62.306"/>
	<path fill="#A82329" d="M83.297,90.907l-10.209,31.218c-0.119,0.343-0.192,0.666-0.232,0.972c-0.028,0.213-0.042,0.418-0.033,0.61
		v0.009c0.063,1.416,1.075,2.277,2.694,2.277h4.542c2.249,0,3.238-0.989,3.238-3.238V90.907z"/>
	<path fill="#2F2C30" d="M127.45,101.308v2.562v18.885c0,2.249,0.989,3.238,3.239,3.238h1.14c2.159,0,3.238-1.53,2.429-3.867
		L127.45,101.308z"/>
	<path fill="#231F20" d="M40.918,202.898c0-0.12,0.065-0.175,0.174-0.175h4.965c0.131,0,0.185,0.055,0.185,0.175v0.513
		c0,0.12-0.055,0.185-0.185,0.185H44.05v6.602c0,0.131-0.054,0.186-0.185,0.186h-0.567c-0.12,0-0.186-0.055-0.186-0.186v-6.602
		h-2.007c-0.12,0-0.185-0.065-0.185-0.185V202.898z"/>
	<path fill="#231F20" d="M51.056,202.724c2.128,0,3.099,0.796,3.099,2.466c0,1.44-0.83,2.182-2.215,2.346l2.226,2.608
		c0.076,0.109,0.054,0.24-0.109,0.24h-0.665c-0.142,0-0.197-0.055-0.273-0.142l-2.204-2.607h-1.331v2.564
		c0,0.131-0.065,0.186-0.186,0.186H48.83c-0.131,0-0.185-0.055-0.185-0.186v-7.3c0-0.119,0.055-0.174,0.185-0.174H51.056z
		 M51.012,206.772c1.626,0,2.194-0.502,2.194-1.582c0-1.135-0.622-1.604-2.172-1.604h-1.452v3.187H51.012z"/>
	<path fill="#231F20" d="M59.678,202.724c0.164,0,0.196,0.065,0.24,0.186l2.739,7.289c0.033,0.098-0.021,0.186-0.141,0.186h-0.633
		c-0.12,0-0.164-0.055-0.207-0.164l-0.687-1.823h-3.35l-0.687,1.823c-0.044,0.109-0.077,0.164-0.197,0.164h-0.643
		c-0.12,0-0.175-0.087-0.142-0.186l2.739-7.289c0.044-0.12,0.077-0.186,0.24-0.186H59.678z M60.692,207.547l-1.364-3.885h-0.021
		l-1.375,3.885H60.692z"/>
	<path fill="#231F20" d="M65.21,210.384c-0.131,0-0.185-0.055-0.185-0.186v-7.3c0-0.12,0.054-0.175,0.185-0.175h2.717
		c1.942,0,2.815,0.655,2.815,1.975c0,1.048-0.535,1.506-1.113,1.648c0.753,0.164,1.385,0.687,1.385,1.866
		c0,1.538-0.971,2.172-3.045,2.172H65.21z M67.96,206.008c1.385,0,1.855-0.36,1.855-1.244c0-0.851-0.513-1.189-1.909-1.189h-1.953
		v2.433H67.96z M67.906,209.522c1.615,0,2.182-0.328,2.182-1.364c0-0.938-0.491-1.32-2.084-1.32h-2.051v2.684H67.906z"/>
	<path fill="#231F20" d="M76.756,202.724c0.164,0,0.196,0.065,0.24,0.186l2.739,7.289c0.033,0.098-0.021,0.186-0.141,0.186H78.96
		c-0.12,0-0.164-0.055-0.207-0.164l-0.687-1.823h-3.35l-0.687,1.823c-0.044,0.109-0.077,0.164-0.197,0.164h-0.643
		c-0.12,0-0.175-0.087-0.142-0.186l2.739-7.289c0.044-0.12,0.077-0.186,0.24-0.186H76.756z M77.771,207.547l-1.364-3.885h-0.021
		l-1.375,3.885H77.771z"/>
	<path fill="#231F20" d="M83.042,209.511h3.306c0.12,0,0.185,0.055,0.185,0.164v0.524c0,0.131-0.065,0.186-0.185,0.186h-4.059
		c-0.131,0-0.186-0.055-0.186-0.186v-7.3c0-0.12,0.055-0.175,0.186-0.175h0.567c0.12,0,0.186,0.055,0.186,0.175V209.511z"/>
	<path fill="#231F20" d="M93.922,206.903h-3.917v3.295c0,0.131-0.065,0.186-0.186,0.186h-0.567c-0.131,0-0.186-0.055-0.186-0.186
		v-7.3c0-0.12,0.055-0.175,0.186-0.175h0.567c0.12,0,0.186,0.055,0.186,0.175v3.132h3.917v-3.132c0-0.12,0.065-0.175,0.185-0.175
		h0.579c0.119,0,0.174,0.055,0.174,0.175v7.3c0,0.131-0.055,0.186-0.174,0.186h-0.579c-0.12,0-0.185-0.055-0.185-0.186V206.903z"/>
	<path fill="#231F20" d="M100.939,202.724c0.164,0,0.196,0.065,0.24,0.186l2.739,7.289c0.033,0.098-0.021,0.186-0.141,0.186h-0.633
		c-0.12,0-0.164-0.055-0.207-0.164l-0.687-1.823h-3.35l-0.687,1.823c-0.044,0.109-0.077,0.164-0.196,0.164h-0.644
		c-0.12,0-0.175-0.087-0.142-0.186l2.739-7.289c0.044-0.12,0.077-0.186,0.24-0.186H100.939z M101.954,207.547l-1.364-3.885h-0.021
		l-1.375,3.885H101.954z"/>
	<path fill="#231F20" d="M112.092,210.199c0,0.131-0.065,0.186-0.186,0.186h-0.6c-0.131,0-0.186-0.044-0.251-0.142l-3.852-5.958
		v5.915c0,0.131-0.055,0.186-0.175,0.186h-0.557c-0.131,0-0.185-0.055-0.185-0.186v-7.3c0-0.12,0.054-0.175,0.185-0.175h0.589
		c0.131,0,0.197,0.033,0.262,0.131l3.852,5.969v-5.926c0-0.12,0.054-0.175,0.174-0.175h0.557c0.12,0,0.186,0.055,0.186,0.164
		V210.199z"/>
	<path fill="#231F20" d="M115.312,210.384c-0.131,0-0.186-0.055-0.186-0.185v-7.3c0-0.12,0.055-0.175,0.174-0.175h1.877
		c2.423,0,3.83,0.938,3.83,3.699c0,3.023-1.408,3.961-3.808,3.961H115.312z M116.064,203.597v5.914h1.124
		c1.801,0,2.859-0.611,2.859-3.088c0-2.226-1.069-2.826-2.881-2.826H116.064z"/>
	<path fill="#231F20" d="M129.901,206.554c0,2.532-1.167,3.939-3.306,3.939c-2.117,0-3.285-1.407-3.285-3.939
		c0-2.531,1.167-3.95,3.295-3.95C128.734,202.604,129.901,204.023,129.901,206.554 M128.941,206.554
		c0-1.986-0.764-3.099-2.335-3.099c-1.572,0-2.336,1.113-2.336,3.099c0,1.986,0.764,3.088,2.336,3.088
		C128.177,209.642,128.941,208.54,128.941,206.554"/>
	<path fill="#231F20" d="M137.127,210.384c-0.131,0-0.186-0.065-0.186-0.186v-7.289c0-0.12,0.054-0.186,0.174-0.186h2.117
		c2.182,0,3.197,0.764,3.197,2.663c0,1.898-1.015,2.651-3.197,2.651h-1.353v2.16c0,0.12-0.065,0.186-0.186,0.186H137.127z
		 M139.232,207.176c1.56,0,2.237-0.469,2.237-1.789c0-1.321-0.677-1.801-2.237-1.801h-1.353v3.59H139.232z"/>
	<path fill="#231F20" d="M147.69,202.724c0.164,0,0.196,0.065,0.24,0.186l2.739,7.289c0.033,0.098-0.021,0.186-0.141,0.186h-0.633
		c-0.12,0-0.164-0.055-0.207-0.164L149,208.398h-3.35l-0.687,1.823c-0.044,0.109-0.077,0.164-0.197,0.164h-0.643
		c-0.12,0-0.175-0.087-0.142-0.186l2.74-7.289c0.043-0.12,0.076-0.186,0.24-0.186H147.69z M148.705,207.547l-1.364-3.885h-0.021
		l-1.375,3.885H148.705z"/>
	<path fill="#231F20" d="M155.449,202.724c2.128,0,3.099,0.796,3.099,2.466c0,1.44-0.83,2.182-2.215,2.346l2.226,2.608
		c0.077,0.109,0.055,0.24-0.109,0.24h-0.666c-0.142,0-0.196-0.055-0.272-0.142l-2.204-2.607h-1.331v2.564
		c0,0.131-0.065,0.186-0.186,0.186h-0.567c-0.131,0-0.185-0.055-0.185-0.186v-7.3c0-0.119,0.054-0.174,0.185-0.174H155.449z
		 M155.405,206.772c1.626,0,2.194-0.502,2.194-1.582c0-1.135-0.622-1.604-2.172-1.604h-1.451v3.187H155.405z"/>
	<path fill="#231F20" d="M164.07,202.724c0.164,0,0.197,0.065,0.24,0.186l2.739,7.289c0.033,0.098-0.021,0.186-0.142,0.186h-0.633
		c-0.12,0-0.164-0.055-0.207-0.164l-0.687-1.823h-3.35l-0.687,1.823c-0.044,0.109-0.077,0.164-0.197,0.164h-0.644
		c-0.119,0-0.174-0.087-0.141-0.186l2.739-7.289c0.043-0.12,0.076-0.186,0.24-0.186H164.07z M165.085,207.547l-1.364-3.885h-0.021
		l-1.375,3.885H165.085z"/>
	<path fill="#231F20" d="M173.15,202.898c0-0.12,0.065-0.175,0.174-0.175h4.965c0.131,0,0.185,0.055,0.185,0.175v0.513
		c0,0.12-0.055,0.185-0.185,0.185h-2.008v6.602c0,0.131-0.054,0.186-0.185,0.186h-0.568c-0.12,0-0.186-0.055-0.186-0.186v-6.602
		h-2.007c-0.12,0-0.185-0.065-0.185-0.185V202.898z"/>
	<path fill="#231F20" d="M186.758,206.554c0,2.532-1.168,3.939-3.306,3.939c-2.117,0-3.285-1.407-3.285-3.939
		c0-2.531,1.167-3.95,3.295-3.95C185.59,202.604,186.758,204.023,186.758,206.554 M185.797,206.554c0-1.986-0.764-3.099-2.335-3.099
		c-1.572,0-2.335,1.113-2.335,3.099c0,1.986,0.763,3.088,2.335,3.088C185.033,209.642,185.797,208.54,185.797,206.554"/>
	<path fill="#231F20" d="M189.617,210.384c-0.131,0-0.186-0.055-0.186-0.185v-7.3c0-0.12,0.054-0.175,0.174-0.175h1.877
		c2.423,0,3.83,0.938,3.83,3.699c0,3.023-1.408,3.961-3.809,3.961H189.617z M190.37,203.597v5.914h1.124
		c1.801,0,2.859-0.611,2.859-3.088c0-2.226-1.069-2.826-2.881-2.826H190.37z"/>
	<path fill="#231F20" d="M204.207,206.554c0,2.532-1.168,3.939-3.306,3.939c-2.117,0-3.285-1.407-3.285-3.939
		c0-2.531,1.168-3.95,3.295-3.95C203.039,202.604,204.207,204.023,204.207,206.554 M203.247,206.554
		c0-1.986-0.764-3.099-2.335-3.099c-1.572,0-2.335,1.113-2.335,3.099c0,1.986,0.763,3.088,2.335,3.088
		C202.483,209.642,203.247,208.54,203.247,206.554"/>
	<path fill="#231F20" d="M208.704,210.471c-0.884,0-1.735-0.153-2.15-0.349c-0.12-0.055-0.175-0.098-0.142-0.208l0.175-0.491
		c0.022-0.098,0.076-0.174,0.218-0.109c0.404,0.164,1.08,0.316,1.866,0.316c1.179,0,1.942-0.415,1.942-1.222
		c0-0.874-0.873-1.19-1.855-1.582c-1.145-0.458-2.171-0.873-2.171-2.237c0-1.222,0.797-1.986,2.629-1.986
		c0.84,0,1.473,0.142,1.888,0.316c0.109,0.044,0.164,0.098,0.131,0.208l-0.175,0.48c-0.032,0.099-0.076,0.153-0.229,0.099
		c-0.382-0.153-0.851-0.251-1.549-0.251c-1.255,0-1.757,0.392-1.757,1.135c0,0.851,0.797,1.08,1.713,1.473
		c1.179,0.502,2.313,0.95,2.313,2.368C211.551,209.784,210.439,210.471,208.704,210.471"/>
</g>
</svg>
