<?xml version="1.0" encoding="utf-8"?>
<!-- Generator: Adobe Illustrator 17.0.0, SVG Export Plug-In . SVG Version: 6.00 Build 0)  -->
<!DOCTYPE svg PUBLIC "-//W3C//DTD SVG 1.1//EN" "http://www.w3.org/Graphics/SVG/1.1/DTD/svg11.dtd">
<svg version="1.1" id="Layer_1" xmlns="http://www.w3.org/2000/svg" xmlns:xlink="http://www.w3.org/1999/xlink" x="0px" y="0px"
	 width="80.5px" height="58.442px" viewBox="0 0 80.5 58.442" enable-background="new 0 0 80.5 58.442" xml:space="preserve">
<g>
	<path fill="#FFFFFF" d="M62.949,22.414c0-2.077,0-4.153,0-6.23c0-0.035,0-0.07,0-0.104c0.003-0.526,0.229-0.754,0.753-0.754
		c1.404-0.001,2.808,0,4.212,0c0.724,0,1.449-0.012,2.172,0.063c0.846,0.088,1.67,0.259,2.445,0.624
		c1.021,0.48,1.711,1.25,2.037,2.334c0.318,1.057,0.371,2.133,0.175,3.215c-0.249,1.378-1.036,2.365-2.277,2.995
		c-0.142,0.072-0.159,0.119-0.074,0.259c0.753,1.23,1.497,2.465,2.245,3.698c0.081,0.134,0.161,0.269,0.19,0.426
		c0.052,0.279-0.106,0.508-0.387,0.557c-0.085,0.015-0.173,0.022-0.259,0.022c-0.905,0.002-1.81-0.004-2.715,0.003
		c-0.525,0.004-0.902-0.207-1.161-0.673c-0.631-1.133-1.281-2.256-1.917-3.386c-0.067-0.119-0.14-0.16-0.272-0.153
		c-0.226,0.011-0.453,0.013-0.678,0C67.3,25.3,67.279,25.35,67.28,25.473c0.005,1.085,0.003,2.17,0.003,3.254
		c0,0.561-0.217,0.788-0.773,0.79c-0.934,0.004-1.868,0.004-2.802,0c-0.536-0.002-0.758-0.231-0.758-0.769
		C62.949,26.637,62.949,24.526,62.949,22.414z M67.283,20.422c0,0.452,0,0.904,0,1.356c0,0.064-0.013,0.126,0.09,0.123
		c0.625-0.015,1.252,0.039,1.875-0.042c0.537-0.069,0.978-0.286,1.149-0.856c0.094-0.316,0.096-0.637,0.057-0.963
		c-0.069-0.576-0.325-0.878-0.884-1.015c-0.101-0.025-0.204-0.041-0.308-0.052c-0.624-0.066-1.25-0.016-1.876-0.034
		c-0.107-0.003-0.104,0.053-0.104,0.128C67.284,19.518,67.283,19.97,67.283,20.422z"/>
	<path fill="#FFFFFF" d="M36.744,22.42c0-2.112,0-4.224,0-6.336c0-0.538,0.221-0.758,0.761-0.758c1.555,0,3.11-0.011,4.665,0.004
		c1.059,0.01,2.103,0.146,3.105,0.517c1.707,0.631,2.755,1.856,3.242,3.59c0.219,0.78,0.322,1.576,0.351,2.384
		c0.041,1.117-0.013,2.225-0.281,3.315c-0.213,0.865-0.556,1.669-1.131,2.361c-0.691,0.831-1.59,1.334-2.609,1.641
		c-0.821,0.247-1.665,0.359-2.521,0.367c-1.584,0.013-3.167,0.012-4.751,0.014c-0.104,0-0.209-0.009-0.311-0.024
		c-0.301-0.045-0.485-0.243-0.514-0.546c-0.006-0.063-0.005-0.127-0.005-0.191C36.744,26.644,36.744,24.532,36.744,22.42z
		 M41.107,22.411c0,1.056,0.002,2.111-0.002,3.167c0,0.115,0.019,0.164,0.149,0.16c0.388-0.013,0.776,0.005,1.164-0.042
		c1.009-0.124,1.636-0.636,1.871-1.618c0.264-1.103,0.253-2.218,0.001-3.324c-0.185-0.814-0.687-1.33-1.503-1.535
		c-0.501-0.126-1.01-0.118-1.52-0.126c-0.135-0.002-0.162,0.042-0.161,0.168C41.109,20.311,41.107,21.361,41.107,22.411z"/>
	<path fill="#FFFFFF" d="M29.397,20.497c0,1.3,0.009,2.599-0.003,3.899c-0.008,0.845-0.134,1.674-0.461,2.461
		c-0.581,1.397-1.66,2.207-3.088,2.593c-1.139,0.307-2.3,0.34-3.468,0.231c-0.661-0.061-1.306-0.194-1.924-0.441
		c-1.457-0.581-2.337-1.658-2.709-3.167c-0.14-0.565-0.206-1.141-0.206-1.722c-0.003-2.756-0.001-5.512-0.001-8.268
		c0-0.535,0.225-0.758,0.764-0.759c0.946,0,1.891,0,2.837,0c0.545,0,0.774,0.228,0.774,0.772c0,2.576,0,5.152,0,7.728
		c0,0.373,0.036,0.74,0.141,1.099c0.162,0.558,0.537,0.864,1.105,0.936c0.213,0.027,0.43,0.03,0.642-0.004
		c0.654-0.102,1.004-0.466,1.144-1.176c0.057-0.291,0.078-0.585,0.078-0.882c-0.001-2.553,0-5.106,0-7.658
		c0-0.052-0.002-0.105,0.001-0.157c0.024-0.415,0.243-0.651,0.659-0.655c1.021-0.01,2.042-0.011,3.063,0
		c0.432,0.005,0.652,0.26,0.652,0.712C29.398,17.526,29.397,19.011,29.397,20.497z"/>
	<path fill="#FFFFFF" d="M60.212,29.519c-0.482,0-0.963,0.002-1.445,0c-0.548-0.002-0.808-0.199-0.959-0.721
		c-0.128-0.445-0.259-0.889-0.379-1.336c-0.031-0.117-0.082-0.152-0.202-0.151c-1.172,0.005-2.344,0.004-3.516,0.001
		c-0.112,0-0.159,0.03-0.188,0.144c-0.116,0.454-0.242,0.906-0.369,1.358c-0.138,0.49-0.395,0.701-0.9,0.705
		c-1.01,0.008-2.019,0.009-3.029,0c-0.507-0.004-0.728-0.345-0.566-0.842c0.602-1.842,1.206-3.685,1.809-5.527
		c0.776-2.37,1.551-4.741,2.327-7.111c0.174-0.531,0.427-0.71,0.99-0.71c1.137,0,2.274,0,3.412,0c0.54,0,0.8,0.183,0.967,0.694
		c1.078,3.288,2.154,6.577,3.23,9.865c0.301,0.918,0.601,1.836,0.9,2.755c0.032,0.099,0.059,0.202,0.068,0.304
		c0.024,0.268-0.159,0.502-0.43,0.547c-0.369,0.061-0.741,0.017-1.112,0.027C60.618,29.523,60.415,29.519,60.212,29.519z
		 M53.814,21.255c-0.296,0-0.591,0-0.887,0c-0.099,0-0.206-0.007-0.243,0.116c-0.034,0.114,0.051,0.164,0.127,0.22
		c0.471,0.347,0.94,0.698,1.414,1.04c0.096,0.069,0.12,0.125,0.079,0.241c-0.193,0.551-0.375,1.106-0.561,1.659
		c-0.028,0.084-0.058,0.17,0.029,0.237c0.094,0.073,0.17,0.021,0.249-0.037c0.411-0.302,0.824-0.601,1.236-0.901
		c0.184-0.134,0.418-0.13,0.604,0.007c0.401,0.296,0.803,0.59,1.203,0.887c0.076,0.056,0.151,0.12,0.249,0.055
		c0.11-0.072,0.064-0.172,0.034-0.265c-0.153-0.479-0.306-0.958-0.46-1.437c-0.114-0.353-0.114-0.353,0.189-0.573
		c0.426-0.31,0.852-0.621,1.279-0.93c0.101-0.074,0.163-0.157,0.059-0.271c-0.052-0.057-0.127-0.047-0.197-0.047
		c-0.586,0-1.171-0.004-1.757,0.003c-0.122,0.001-0.17-0.039-0.205-0.152c-0.159-0.52-0.329-1.036-0.493-1.554
		c-0.03-0.096-0.052-0.199-0.182-0.196c-0.12,0.003-0.141,0.102-0.17,0.19c-0.175,0.521-0.353,1.041-0.521,1.565
		c-0.037,0.116-0.091,0.15-0.209,0.147C54.394,21.249,54.104,21.255,53.814,21.255z"/>
	<path fill="#FFFFFF" d="M11.833,15.082c1.222,0.016,2.365,0.159,3.44,0.653c0.295,0.136,0.58,0.29,0.844,0.48
		c0.38,0.273,0.446,0.498,0.254,0.926c-0.235,0.523-0.479,1.041-0.718,1.561c-0.031,0.068-0.063,0.136-0.094,0.205
		c-0.182,0.397-0.401,0.504-0.824,0.381c-0.305-0.089-0.596-0.222-0.908-0.292c-0.734-0.165-1.471-0.182-2.209-0.044
		c-0.991,0.185-1.614,0.774-1.837,1.757c-0.26,1.147-0.27,2.298,0.019,3.443c0.26,1.028,0.951,1.58,1.972,1.752
		c0.977,0.165,1.927,0.068,2.847-0.304c0.086-0.035,0.174-0.063,0.263-0.088c0.394-0.109,0.621-0.016,0.798,0.349
		c0.252,0.521,0.492,1.047,0.736,1.572c0.051,0.11,0.105,0.22,0.147,0.333c0.138,0.376,0.08,0.577-0.245,0.812
		c-0.488,0.352-1.021,0.62-1.598,0.786c-1.875,0.542-3.758,0.573-5.608-0.068c-1.94-0.672-3.119-2.071-3.629-4.049
		c-0.319-1.238-0.363-2.496-0.292-3.763c0.051-0.906,0.2-1.796,0.517-2.65c0.707-1.905,2.1-3.027,4.043-3.513
		C10.452,15.145,11.168,15.093,11.833,15.082z"/>
	<path fill="#FFFFFF" d="M46.643,36.717c0-1.595,0-3.19,0-4.785c0-0.48,0.156-0.638,0.635-0.637c1.293,0.003,2.587-0.012,3.88,0.017
		c0.898,0.02,1.771,0.201,2.578,0.624c0.956,0.502,1.574,1.292,1.874,2.312c0.469,1.592,0.477,3.203,0.047,4.804
		c-0.425,1.582-1.494,2.514-3.064,2.899c-0.599,0.147-1.209,0.211-1.826,0.211c-1.177,0.001-2.355,0-3.532,0
		c-0.42,0-0.591-0.17-0.592-0.59C46.642,39.954,46.643,38.336,46.643,36.717z M49.995,36.724c0,0.794,0.004,1.588-0.003,2.383
		c-0.001,0.14,0.04,0.175,0.174,0.17c0.278-0.01,0.555-0.001,0.833-0.036c0.792-0.101,1.273-0.509,1.445-1.286
		c0.18-0.813,0.174-1.634,0.001-2.449c-0.149-0.703-0.585-1.118-1.295-1.256c-0.334-0.065-0.668-0.052-1.004-0.062
		c-0.122-0.004-0.155,0.033-0.154,0.154C49.998,35.135,49.995,35.93,49.995,36.724z"/>
	<path fill="#FFFFFF" d="M5.345,36.728c0-1.607,0-3.213,0-4.82c0-0.451,0.156-0.613,0.602-0.613
		c1.299,0.002,2.599-0.012,3.897,0.017c0.916,0.021,1.805,0.204,2.625,0.645c0.969,0.522,1.574,1.338,1.864,2.381
		c0.45,1.616,0.455,3.246-0.021,4.854c-0.469,1.582-1.603,2.452-3.18,2.795C10.57,42.11,10,42.164,9.424,42.163
		c-1.166-0.001-2.332,0-3.498,0c-0.413,0-0.581-0.167-0.581-0.579C5.345,39.965,5.345,38.346,5.345,36.728z M8.693,36.722
		c0,0.8,0.003,1.6-0.003,2.4c-0.001,0.122,0.032,0.158,0.154,0.154c0.284-0.009,0.567-0.001,0.85-0.036
		c0.783-0.098,1.251-0.486,1.434-1.251c0.202-0.846,0.192-1.7-0.004-2.548c-0.152-0.655-0.573-1.036-1.223-1.181
		c-0.343-0.076-0.69-0.065-1.038-0.073c-0.134-0.003-0.175,0.03-0.174,0.17C8.697,35.145,8.693,35.933,8.693,36.722z"/>
	<path fill="#FFFFFF" d="M66.513,36.75c-0.016,0.864-0.087,1.738-0.37,2.584c-0.543,1.625-1.685,2.565-3.341,2.894
		c-0.984,0.195-1.976,0.183-2.947-0.078c-1.521-0.408-2.559-1.36-3.007-2.876c-0.506-1.712-0.51-3.446,0.024-5.154
		c0.491-1.569,1.598-2.499,3.187-2.856c1.075-0.241,2.157-0.229,3.216,0.082c1.625,0.477,2.591,1.589,2.997,3.213
		C66.449,35.272,66.502,35.999,66.513,36.75z M59.904,36.731c0,0.226-0.014,0.453,0.004,0.678c0.018,0.227,0.06,0.454,0.104,0.678
		c0.079,0.4,0.214,0.777,0.53,1.058c0.76,0.675,1.952,0.355,2.322-0.618c0.179-0.471,0.211-0.966,0.236-1.459
		c0.033-0.647,0.005-1.295-0.169-1.925c-0.139-0.503-0.393-0.926-0.923-1.09c-0.687-0.213-1.596-0.085-1.927,1.051
		C59.926,35.636,59.889,36.181,59.904,36.731z"/>
	<path fill="#FFFFFF" d="M35.813,36.649c0.003-0.778,0.08-1.63,0.343-2.456c0.475-1.491,1.465-2.458,2.975-2.868
		c1.16-0.314,2.332-0.31,3.485,0.029c1.547,0.455,2.523,1.498,2.927,3.046c0.411,1.576,0.416,3.17-0.025,4.741
		c-0.507,1.805-1.751,2.814-3.574,3.119c-0.976,0.163-1.956,0.138-2.91-0.149c-1.608-0.483-2.571-1.581-2.977-3.191
		C35.875,38.202,35.814,37.47,35.813,36.649z M39.216,36.892c0.004,0.45,0.034,1.051,0.242,1.628
		c0.322,0.892,1.104,1.099,1.819,0.903c0.558-0.153,0.825-0.584,0.973-1.106c0.183-0.644,0.19-1.306,0.169-1.967
		c-0.015-0.482-0.067-0.96-0.239-1.416c-0.145-0.383-0.377-0.692-0.769-0.851c-0.884-0.357-1.739,0.078-2.011,1.02
		C39.246,35.637,39.214,36.185,39.216,36.892z"/>
	<path fill="#FFFFFF" d="M15.471,36.731c0-1.601,0-3.203,0-4.804c0-0.483,0.15-0.632,0.635-0.632c2.083,0,4.166,0,6.248,0
		c0.493,0,0.642,0.151,0.642,0.645c0,0.499,0,0.998,0,1.497c0,0.47-0.154,0.629-0.624,0.629c-1.137,0.002-2.274,0.004-3.411-0.003
		c-0.166-0.001-0.22,0.036-0.211,0.208c0.015,0.295,0.013,0.592,0.001,0.887c-0.006,0.15,0.047,0.179,0.186,0.178
		c1.067-0.006,2.135-0.003,3.203-0.003c0.459,0,0.612,0.154,0.613,0.618c0.001,0.482,0.002,0.963,0,1.445
		c-0.002,0.415-0.169,0.583-0.581,0.583c-1.079,0.001-2.158,0.003-3.237-0.003c-0.142-0.001-0.188,0.032-0.183,0.18
		c0.011,0.359,0.01,0.719,0,1.079c-0.004,0.133,0.038,0.165,0.166,0.164c1.178-0.005,2.355-0.003,3.533-0.002
		c0.069,0,0.139,0.001,0.208,0.01c0.25,0.031,0.391,0.161,0.415,0.413c0.051,0.544,0.012,1.09,0.021,1.634
		c0.002,0.098-0.006,0.197-0.02,0.294c-0.035,0.25-0.188,0.392-0.439,0.412c-0.052,0.004-0.104,0.002-0.157,0.002
		c-2.123,0-4.247,0-6.37,0c-0.492,0-0.637-0.146-0.637-0.645C15.471,39.922,15.471,38.326,15.471,36.731z"/>
	<path fill="#FFFFFF" d="M70.518,42.325c-0.944-0.032-2.091-0.187-3.157-0.724c-0.406-0.205-0.482-0.402-0.319-0.832
		c0.161-0.428,0.322-0.856,0.484-1.283c0.161-0.423,0.367-0.514,0.782-0.347c0.943,0.379,1.914,0.544,2.927,0.377
		c0.184-0.03,0.363-0.079,0.519-0.187c0.285-0.196,0.301-0.526,0.036-0.748c-0.153-0.128-0.336-0.205-0.517-0.282
		c-0.564-0.242-1.158-0.403-1.729-0.628c-0.439-0.173-0.847-0.402-1.233-0.672c-0.567-0.397-0.907-0.955-1.088-1.609
		c-0.197-0.713-0.208-1.435,0.001-2.147c0.302-1.029,1.054-1.586,2.042-1.872c0.834-0.242,1.691-0.275,2.551-0.233
		c0.797,0.039,1.578,0.167,2.32,0.475c0.182,0.076,0.362,0.156,0.529,0.261c0.241,0.152,0.324,0.36,0.227,0.626
		c-0.173,0.473-0.355,0.942-0.546,1.408c-0.128,0.312-0.353,0.401-0.698,0.291c-0.713-0.229-1.443-0.337-2.191-0.318
		c-0.232,0.006-0.463,0.026-0.686,0.098c-0.344,0.111-0.448,0.469-0.216,0.747c0.134,0.16,0.319,0.248,0.501,0.336
		c0.673,0.326,1.39,0.543,2.08,0.828c0.488,0.201,0.937,0.47,1.328,0.814c0.432,0.38,0.7,0.88,0.797,1.45
		c0.127,0.749,0.118,1.496-0.209,2.199c-0.446,0.958-1.227,1.514-2.236,1.772C72.137,42.301,71.446,42.353,70.518,42.325z"/>
	<path fill="#FFFFFF" d="M35.223,22.425c0,2.094,0,4.188-0.001,6.282c0,0.104-0.001,0.21-0.021,0.311
		c-0.056,0.279-0.223,0.433-0.504,0.476c-0.097,0.015-0.196,0.023-0.294,0.023c-0.911,0.002-1.821,0.002-2.732,0
		c-0.098,0-0.197-0.01-0.294-0.024c-0.297-0.045-0.478-0.232-0.512-0.528c-0.011-0.098-0.015-0.197-0.015-0.295
		c-0.001-4.17-0.001-8.341,0-12.511c0-0.069,0.003-0.139,0.009-0.208c0.035-0.403,0.244-0.618,0.648-0.622
		c1.021-0.009,2.042-0.011,3.063,0.001c0.44,0.005,0.652,0.256,0.652,0.727c0.002,1.206,0.001,2.413,0.001,3.619
		C35.223,20.592,35.223,21.508,35.223,22.425z"/>
	<path fill="#FFFFFF" d="M31.437,31.294c1.172,0,2.344,0,3.515,0c0.075,0,0.151,0,0.226,0.006c0.281,0.023,0.452,0.192,0.455,0.473
		c0.006,0.667,0.006,1.334,0,2.001c-0.003,0.263-0.148,0.413-0.407,0.462c-0.161,0.031-0.324,0.015-0.486,0.016
		c-0.452,0.003-0.905,0.001-1.357,0.001c-0.26,0-0.26,0-0.26,0.251c0,2.349,0,4.699,0,7.048c0,0.449-0.159,0.609-0.605,0.61
		c-0.719,0-1.439,0-2.158,0c-0.425,0-0.589-0.162-0.589-0.589c-0.001-2.373-0.002-4.745,0.004-7.118
		c0-0.173-0.048-0.209-0.212-0.206c-0.562,0.011-1.125,0.005-1.688,0.004c-0.453-0.001-0.624-0.169-0.624-0.617
		c-0.001-0.58-0.001-1.16,0-1.74c0.001-0.43,0.169-0.6,0.601-0.601C29.047,31.293,30.242,31.295,31.437,31.294z"/>
	<path fill="#FFFFFF" d="M60.052,10.367c-0.256,0.417-0.511,0.834-0.766,1.251c-0.141,0.231-0.213,0.23-0.357-0.005
		c-0.257-0.422-0.515-0.843-0.803-1.257c0,0.24,0,0.481,0,0.721c0,0.452-0.006,0.905,0.003,1.357
		c0.003,0.158-0.057,0.204-0.203,0.201c-0.547-0.009-0.477,0.064-0.479-0.465c-0.003-0.933-0.001-1.867-0.001-2.8
		c0-0.228,0.005-0.206,0.234-0.235c0.322-0.042,0.505,0.08,0.653,0.365c0.204,0.395,0.456,0.764,0.688,1.145
		c0.026,0.043,0.055,0.085,0.091,0.14c0.306-0.503,0.607-0.989,0.898-1.481c0.071-0.119,0.149-0.169,0.29-0.167
		c0.472,0.006,0.472,0.001,0.472,0.466c0,0.933,0,1.867,0,2.8c0,0.211-0.018,0.231-0.225,0.23c-0.534-0.002-0.45,0.054-0.453-0.45
		c-0.004-0.602-0.001-1.204-0.001-1.805C60.079,10.374,60.066,10.37,60.052,10.367z"/>
	<path fill="#FFFFFF" d="M54.413,46.213c-0.044,0.087-0.028,0.15-0.028,0.211c-0.001,0.621-0.005,1.242,0.002,1.862
		c0.002,0.154-0.05,0.199-0.201,0.198c-0.481-0.004-0.481,0.001-0.481-0.475c0-0.928,0.004-1.857-0.003-2.785
		c-0.001-0.168,0.053-0.202,0.216-0.221c0.335-0.041,0.526,0.082,0.681,0.379c0.224,0.43,0.498,0.835,0.762,1.27
		c0.208-0.339,0.408-0.666,0.607-0.992c0.109-0.178,0.221-0.354,0.323-0.535c0.05-0.088,0.114-0.115,0.211-0.116
		c0.516-0.007,0.516-0.01,0.516,0.505c0,0.917-0.003,1.833,0.003,2.75c0.001,0.164-0.044,0.224-0.216,0.221
		c-0.461-0.008-0.461-0.001-0.461-0.456c0-0.601,0-1.202,0-1.851c-0.059,0.086-0.095,0.134-0.126,0.185
		c-0.236,0.385-0.469,0.771-0.705,1.156c-0.107,0.174-0.197,0.174-0.303,0.001C54.948,47.092,54.687,46.663,54.413,46.213z"/>
	<path fill="#FFFFFF" d="M19.347,46.242c0,0.677-0.004,1.355,0.003,2.032c0.002,0.157-0.038,0.214-0.204,0.211
		c-0.467-0.007-0.467,0-0.467-0.468c0-0.933,0.004-1.867-0.003-2.8c-0.001-0.159,0.046-0.193,0.203-0.214
		c0.363-0.049,0.561,0.097,0.737,0.41c0.349,0.625,0.746,1.223,1.124,1.836c0.061-0.042,0.032-0.099,0.032-0.144
		c0.002-0.626,0.006-1.252-0.001-1.878c-0.002-0.164,0.044-0.239,0.216-0.217c0.08,0.01,0.163,0.011,0.243,0
		c0.177-0.024,0.232,0.051,0.231,0.222c-0.005,1.009-0.005,2.018,0,3.026c0.001,0.17-0.054,0.234-0.232,0.227
		c-0.556-0.021-0.391,0.084-0.688-0.386c-0.358-0.567-0.708-1.14-1.062-1.71c-0.033-0.053-0.068-0.105-0.102-0.158
		C19.368,46.235,19.358,46.239,19.347,46.242z"/>
	<path fill="#FFFFFF" d="M43.695,11.369c0.273,0.359,0.529,0.695,0.784,1.031c0.041,0.054,0.105,0.109,0.063,0.183
		c-0.036,0.063-0.112,0.042-0.174,0.052c-0.337,0.053-0.583-0.051-0.764-0.36c-0.152-0.258-0.356-0.484-0.539-0.724
		c-0.055-0.072-0.41-0.132-0.479-0.082c-0.046,0.033-0.026,0.085-0.026,0.129c-0.002,0.267,0,0.533-0.001,0.8
		c-0.001,0.206-0.029,0.236-0.227,0.235c-0.546-0.003-0.479,0.064-0.48-0.482c-0.002-0.922-0.001-1.843-0.001-2.765
		c0-0.244,0.002-0.249,0.237-0.246c0.452,0.006,0.904-0.018,1.355,0.015c0.14,0.01,0.276,0.038,0.407,0.084
		c0.51,0.177,0.715,0.543,0.687,1.168C44.513,10.929,44.227,11.248,43.695,11.369z M42.558,10.299c0,0.156-0.001,0.313,0,0.469
		c0,0.049-0.017,0.114,0.067,0.111c0.288-0.008,0.581,0.036,0.863-0.052c0.248-0.076,0.355-0.253,0.346-0.552
		c-0.009-0.277-0.122-0.429-0.373-0.494c-0.274-0.071-0.554-0.025-0.831-0.039c-0.084-0.004-0.073,0.052-0.073,0.104
		C42.558,9.997,42.558,10.148,42.558,10.299z"/>
	<path fill="#FFFFFF" d="M20.022,11.372c0.264,0.346,0.517,0.677,0.767,1.009c0.043,0.057,0.123,0.112,0.08,0.196
		c-0.041,0.082-0.133,0.046-0.204,0.058c-0.33,0.056-0.558-0.064-0.732-0.355c-0.151-0.252-0.35-0.476-0.528-0.712
		c-0.064-0.085-0.406-0.156-0.491-0.102c-0.05,0.031-0.03,0.084-0.03,0.127c-0.002,0.279-0.004,0.557,0,0.836
		c0.002,0.146-0.056,0.209-0.207,0.206c-0.601-0.01-0.485,0.063-0.489-0.484c-0.007-0.94,0-1.88-0.004-2.82
		c-0.001-0.137,0.028-0.2,0.181-0.194c0.469,0.016,0.94-0.015,1.409,0.019c0.14,0.01,0.276,0.04,0.407,0.085
		c0.495,0.172,0.745,0.611,0.682,1.191C20.808,10.952,20.579,11.214,20.022,11.372z M19.288,9.743c-0.099,0-0.197,0.004-0.295-0.001
		c-0.078-0.004-0.113,0.014-0.111,0.103c0.005,0.313,0.002,0.626,0.002,0.939c0,0.047-0.005,0.098,0.065,0.096
		c0.294-0.009,0.592,0.037,0.88-0.056c0.234-0.075,0.339-0.256,0.331-0.547c-0.008-0.269-0.12-0.424-0.354-0.493
		C19.635,9.734,19.461,9.744,19.288,9.743z"/>
	<path fill="#FFFFFF" d="M45.906,46.737c0-0.516,0.004-1.032-0.003-1.548c-0.002-0.138,0.043-0.185,0.18-0.179
		c0.52,0.022,1.045-0.046,1.562,0.041c0.816,0.139,1.203,0.963,0.808,1.698c-0.133,0.247-0.35,0.381-0.608,0.454
		c-0.099,0.028-0.091,0.053-0.038,0.122c0.241,0.311,0.478,0.626,0.716,0.939c0.039,0.051,0.092,0.1,0.062,0.169
		c-0.034,0.077-0.111,0.047-0.17,0.046c-0.616-0.01-0.415,0.091-0.794-0.389c-0.172-0.218-0.335-0.444-0.502-0.666
		c-0.062-0.082-0.405-0.153-0.491-0.1c-0.05,0.031-0.031,0.083-0.031,0.127c-0.002,0.284-0.006,0.568,0.001,0.852
		c0.003,0.138-0.05,0.189-0.185,0.179c-0.11-0.008-0.221-0.008-0.33,0c-0.136,0.01-0.182-0.045-0.181-0.181
		C45.909,47.78,45.906,47.259,45.906,46.737z M46.597,46.138c0,0.194,0.001,0.356-0.001,0.519c-0.001,0.059,0.008,0.098,0.083,0.097
		c0.26-0.004,0.522,0.014,0.779-0.039c0.223-0.046,0.37-0.17,0.412-0.41c0.065-0.373-0.088-0.607-0.461-0.675
		c-0.079-0.014-0.161-0.019-0.242-0.019c-0.184,0-0.427-0.063-0.537,0.029C46.517,45.735,46.61,45.987,46.597,46.138z"/>
	<path fill="#FFFFFF" d="M64.178,46.747c0-0.522,0-1.043,0-1.565c0-0.082-0.011-0.174,0.113-0.17
		c0.538,0.016,1.079-0.051,1.614,0.038c0.815,0.135,1.207,0.956,0.82,1.693c-0.13,0.248-0.345,0.387-0.604,0.459
		c-0.113,0.031-0.094,0.062-0.04,0.132c0.241,0.312,0.478,0.626,0.717,0.939c0.039,0.051,0.093,0.103,0.056,0.169
		c-0.033,0.06-0.104,0.039-0.16,0.039c-0.507,0.008-0.507,0.007-0.809-0.395c-0.17-0.227-0.341-0.454-0.512-0.68
		c-0.053-0.07-0.411-0.126-0.482-0.076c-0.048,0.033-0.028,0.085-0.029,0.128c-0.002,0.284-0.005,0.568,0.001,0.852
		c0.002,0.126-0.041,0.172-0.171,0.174c-0.516,0.008-0.516,0.011-0.516-0.503C64.178,47.57,64.178,47.159,64.178,46.747z
		 M64.863,46.181c0,0.156,0,0.313,0,0.469c0,0.055,0,0.105,0.079,0.103c0.283-0.007,0.568,0.025,0.845-0.058
		c0.255-0.076,0.374-0.256,0.364-0.539c-0.01-0.292-0.133-0.45-0.399-0.512c-0.269-0.063-0.542-0.022-0.814-0.034
		c-0.082-0.004-0.076,0.049-0.076,0.103C64.863,45.868,64.863,46.025,64.863,46.181z"/>
	<path fill="#FFFFFF" d="M25.782,10.901c-0.005-0.328,0.029-0.62,0.131-0.901c0.198-0.546,0.593-0.843,1.162-0.908
		c0.248-0.029,0.499-0.025,0.743,0.042c0.502,0.138,0.815,0.473,0.955,0.964c0.141,0.495,0.144,0.997,0.019,1.496
		c-0.152,0.606-0.538,0.98-1.162,1.064c-0.844,0.114-1.527-0.179-1.766-1.046C25.798,11.371,25.771,11.123,25.782,10.901z
		 M28.156,10.858c0.004-0.216-0.019-0.456-0.109-0.687c-0.123-0.316-0.36-0.471-0.692-0.485c-0.338-0.015-0.615,0.142-0.733,0.448
		c-0.192,0.499-0.192,1.009,0.006,1.506c0.12,0.3,0.377,0.426,0.693,0.427c0.315,0.001,0.559-0.123,0.698-0.42
		C28.132,11.406,28.157,11.149,28.156,10.858z"/>
	<path fill="#FFFFFF" d="M32.948,46.705c-0.008-0.204,0.015-0.439,0.074-0.671c0.16-0.631,0.598-1.015,1.246-1.079
		c0.226-0.022,0.452-0.015,0.673,0.041c0.54,0.137,0.865,0.495,1,1.023c0.124,0.484,0.125,0.977-0.002,1.461
		c-0.153,0.58-0.525,0.945-1.128,1.034c-0.844,0.125-1.53-0.168-1.775-1.002c-0.057-0.195-0.089-0.395-0.088-0.599
		C32.949,46.855,32.948,46.797,32.948,46.705z M33.65,46.747c-0.003,0.268,0.026,0.532,0.144,0.776
		c0.142,0.295,0.396,0.415,0.707,0.409c0.312-0.006,0.566-0.139,0.682-0.445c0.185-0.488,0.187-0.984,0.004-1.474
		c-0.117-0.313-0.365-0.451-0.69-0.455c-0.331-0.004-0.581,0.129-0.718,0.443C33.675,46.239,33.648,46.49,33.65,46.747z"/>
	<path fill="#FFFFFF" d="M36.72,11.47c0,0.238-0.008,0.476,0.003,0.713c0.007,0.152-0.058,0.236-0.187,0.296
		c-0.202,0.094-0.413,0.151-0.633,0.176c-0.319,0.037-0.638,0.042-0.952-0.027c-0.567-0.124-0.933-0.471-1.078-1.032
		c-0.121-0.468-0.125-0.943-0.005-1.411c0.155-0.606,0.553-0.963,1.168-1.064c0.481-0.08,0.957-0.072,1.412,0.143
		c0.147,0.069,0.197,0.149,0.123,0.31C36.414,9.92,36.478,9.898,36.13,9.78c-0.263-0.09-0.535-0.099-0.807-0.061
		c-0.463,0.065-0.72,0.316-0.794,0.788c-0.046,0.293-0.044,0.59,0.029,0.88c0.086,0.339,0.296,0.556,0.643,0.631
		c0.253,0.054,0.506,0.052,0.758-0.009c0.086-0.021,0.136-0.056,0.131-0.163c-0.011-0.214-0.008-0.429-0.001-0.644
		c0.003-0.094-0.029-0.119-0.117-0.114c-0.127,0.006-0.255-0.002-0.383,0.003c-0.116,0.004-0.168-0.039-0.166-0.162
		c0.007-0.434-0.038-0.376,0.365-0.378c0.244-0.001,0.488,0.01,0.731-0.004c0.169-0.01,0.21,0.055,0.203,0.211
		C36.712,10.994,36.72,11.233,36.72,11.47z"/>
	<path fill="#FFFFFF" d="M10.457,10.872c0-0.522,0.002-1.043-0.001-1.565c-0.001-0.113,0.029-0.173,0.156-0.169
		c0.463,0.012,0.927-0.016,1.39,0.017c0.14,0.01,0.275,0.04,0.407,0.083c0.417,0.136,0.644,0.43,0.7,0.861
		c0.027,0.208,0.028,0.417-0.01,0.623c-0.095,0.518-0.448,0.809-1.043,0.873c-0.26,0.028-0.52,0.037-0.78,0.027
		c-0.1-0.004-0.127,0.029-0.124,0.126c0.007,0.226-0.004,0.452,0.004,0.678c0.005,0.148-0.046,0.212-0.199,0.209
		c-0.596-0.011-0.492,0.069-0.499-0.493C10.453,11.718,10.457,11.295,10.457,10.872z M11.549,9.736c0,0.003,0,0.005-0.001,0.008
		c-0.098,0-0.197,0.004-0.295-0.001c-0.071-0.003-0.102,0.014-0.101,0.094c0.004,0.364,0.003,0.729,0.001,1.093
		c0,0.066,0.022,0.094,0.09,0.091c0.225-0.009,0.452,0.001,0.675-0.027c0.34-0.043,0.494-0.239,0.501-0.594
		c0.008-0.377-0.129-0.568-0.473-0.634C11.817,9.74,11.682,9.745,11.549,9.736z"/>
	<path fill="#FFFFFF" d="M41.107,46.731c0-0.504,0.004-1.008-0.002-1.513c-0.002-0.154,0.043-0.217,0.209-0.21
		c0.48,0.022,0.963-0.036,1.441,0.031c0.782,0.109,1.082,0.567,1.011,1.38c-0.057,0.653-0.395,0.963-1.049,1.037
		c-0.26,0.029-0.52,0.032-0.781,0.025c-0.108-0.003-0.139,0.029-0.135,0.136c0.008,0.237-0.001,0.475,0.004,0.713
		c0.002,0.113-0.044,0.157-0.155,0.153c-0.116-0.005-0.232-0.009-0.348,0.001c-0.159,0.014-0.199-0.062-0.198-0.206
		C41.11,47.763,41.107,47.247,41.107,46.731z M41.804,46.23c0,0.18,0.001,0.359-0.001,0.539c-0.001,0.064,0.001,0.113,0.088,0.112
		c0.237-0.005,0.476,0.016,0.711-0.026c0.323-0.058,0.465-0.25,0.467-0.607c0.002-0.363-0.133-0.541-0.46-0.611
		c-0.241-0.052-0.485-0.015-0.727-0.028c-0.079-0.004-0.079,0.044-0.078,0.1C41.805,45.883,41.804,46.057,41.804,46.23z"/>
	<path fill="#FFFFFF" d="M67.279,9.14c0.461,0.006,0.371-0.064,0.528,0.373c0.344,0.957,0.685,1.915,1.027,2.873
		c0.074,0.208,0.048,0.246-0.169,0.247c-0.48,0.004-0.48,0.004-0.639-0.444c-0.112-0.316-0.112-0.316-0.446-0.316
		c-0.267,0-0.534,0.007-0.8-0.003c-0.116-0.004-0.161,0.038-0.192,0.142c-0.047,0.16-0.114,0.315-0.163,0.475
		c-0.033,0.107-0.097,0.149-0.204,0.147c-0.128-0.003-0.255,0-0.383-0.001c-0.125-0.001-0.186-0.044-0.136-0.183
		c0.378-1.055,0.754-2.112,1.129-3.168c0.036-0.101,0.095-0.152,0.206-0.143C67.116,9.145,67.198,9.14,67.279,9.14z M67.76,11.275
		c-0.157-0.477-0.311-0.943-0.464-1.409c-0.012,0.002-0.023,0.004-0.035,0.006c-0.155,0.464-0.31,0.929-0.468,1.403
		C67.118,11.275,67.428,11.275,67.76,11.275z"/>
	<path fill="#FFFFFF" d="M50.954,9.14c0.467,0.004,0.361-0.055,0.514,0.366c0.347,0.956,0.684,1.916,1.024,2.874
		c0.079,0.222,0.058,0.254-0.175,0.253c-0.575-0.002-0.437,0.056-0.624-0.439c-0.121-0.319-0.114-0.321-0.46-0.321
		c-0.255,0-0.511,0.006-0.765-0.003c-0.12-0.004-0.187,0.022-0.219,0.151c-0.039,0.156-0.107,0.305-0.159,0.458
		c-0.015,0.045-0.03,0.088-0.067,0.118c-0.054,0.044-0.573,0.055-0.631,0.012c-0.083-0.062-0.034-0.134-0.01-0.203
		c0.263-0.74,0.527-1.48,0.791-2.221c0.097-0.272,0.205-0.541,0.288-0.817c0.052-0.172,0.134-0.26,0.32-0.231
		C50.837,9.147,50.896,9.14,50.954,9.14z M50.943,9.819c-0.171,0.511-0.328,0.98-0.489,1.462c0.305,0,0.589-0.001,0.872,0.001
		c0.066,0,0.098-0.011,0.073-0.087C51.251,10.753,51.105,10.31,50.943,9.819z"/>
	<path fill="#FFFFFF" d="M6.984,45.012c0.454,0.01,0.363-0.078,0.524,0.373c0.343,0.957,0.685,1.913,1.027,2.87
		c0.073,0.203,0.055,0.231-0.166,0.226c-0.601-0.012-0.437,0.107-0.65-0.464c-0.105-0.282-0.1-0.284-0.4-0.284
		c-0.267,0-0.534,0.009-0.8-0.004c-0.132-0.006-0.199,0.031-0.233,0.161c-0.038,0.145-0.095,0.285-0.145,0.426
		c-0.015,0.043-0.032,0.088-0.06,0.124c-0.04,0.051-0.609,0.063-0.66,0.018c-0.073-0.064-0.017-0.132,0.004-0.191
		c0.221-0.626,0.446-1.251,0.67-1.876c0.134-0.375,0.267-0.75,0.401-1.126c0.091-0.254,0.091-0.254,0.367-0.254
		C6.903,45.012,6.943,45.012,6.984,45.012z M7.462,47.138c-0.159-0.481-0.31-0.94-0.477-1.449c-0.172,0.513-0.328,0.977-0.487,1.449
		C6.825,47.138,7.131,47.138,7.462,47.138z"/>
	<path fill="#FFFFFF" d="M29.678,45.012c0.428,0.009,0.349-0.074,0.504,0.356c0.344,0.958,0.686,1.916,1.028,2.874
		c0.077,0.216,0.06,0.244-0.167,0.24c-0.588-0.01-0.439,0.095-0.641-0.455c-0.108-0.292-0.105-0.293-0.409-0.293
		c-0.279,0-0.557,0.005-0.835-0.003c-0.106-0.003-0.152,0.03-0.18,0.132c-0.045,0.161-0.112,0.316-0.164,0.476
		c-0.033,0.103-0.091,0.152-0.204,0.145c-0.121-0.007-0.244-0.001-0.365-0.002c-0.186-0.002-0.205-0.027-0.142-0.205
		c0.216-0.61,0.433-1.22,0.65-1.83c0.14-0.392,0.28-0.784,0.42-1.176c0.093-0.259,0.093-0.259,0.367-0.259
		C29.585,45.012,29.631,45.012,29.678,45.012z M30.141,47.141c-0.158-0.481-0.312-0.95-0.477-1.453
		c-0.161,0.478-0.31,0.922-0.46,1.365c-0.025,0.072,0,0.09,0.07,0.089C29.556,47.14,29.84,47.141,30.141,47.141z"/>
	<path fill="#FFFFFF" d="M60.607,45.012c0.447,0.009,0.356-0.072,0.514,0.366c0.342,0.952,0.68,1.905,1.019,2.858
		c0.081,0.226,0.065,0.25-0.175,0.246c-0.581-0.01-0.422,0.093-0.628-0.449c-0.112-0.296-0.105-0.298-0.425-0.298
		c-0.278,0-0.557,0.004-0.835-0.002c-0.09-0.002-0.134,0.025-0.16,0.112c-0.05,0.166-0.112,0.328-0.17,0.491
		c-0.017,0.049-0.029,0.117-0.081,0.127c-0.206,0.036-0.417,0.047-0.618-0.003c-0.099-0.025-0.028-0.133-0.006-0.196
		c0.244-0.692,0.492-1.383,0.739-2.074c0.113-0.316,0.234-0.629,0.333-0.949c0.056-0.18,0.149-0.262,0.338-0.23
		C60.501,45.019,60.555,45.012,60.607,45.012z M60.615,45.738c-0.012,0.001-0.024,0.003-0.036,0.004
		c-0.155,0.462-0.31,0.924-0.468,1.393c0.322,0,0.632,0,0.961,0C60.917,46.661,60.766,46.199,60.615,45.738z"/>
	<path fill="#FFFFFF" d="M74.542,48.482c-0.058,0-0.117-0.005-0.174,0.001c-0.127,0.014-0.187-0.047-0.227-0.163
		c-0.068-0.195-0.075-0.469-0.23-0.562c-0.155-0.092-0.406-0.024-0.614-0.025c-0.162-0.001-0.325,0.008-0.487-0.003
		c-0.111-0.007-0.166,0.027-0.197,0.135c-0.046,0.161-0.115,0.315-0.162,0.476c-0.032,0.109-0.096,0.147-0.204,0.142
		c-0.122-0.005-0.244,0-0.365-0.001c-0.185-0.002-0.204-0.028-0.14-0.206c0.316-0.888,0.633-1.775,0.949-2.662
		c0.054-0.153,0.112-0.304,0.162-0.458c0.033-0.102,0.091-0.151,0.203-0.146c0.145,0.007,0.291,0.011,0.435-0.001
		c0.154-0.013,0.225,0.048,0.276,0.193c0.305,0.873,0.62,1.743,0.931,2.613c0.053,0.147,0.105,0.294,0.156,0.441
		c0.069,0.198,0.051,0.224-0.154,0.225C74.647,48.482,74.594,48.482,74.542,48.482z M73.303,45.688
		c-0.172,0.513-0.328,0.975-0.486,1.447c0.323,0,0.633,0,0.962,0C73.624,46.665,73.472,46.203,73.303,45.688z"/>
	<path fill="#FFFFFF" d="M14.363,46.733c0-0.51,0.004-1.021-0.003-1.531c-0.002-0.14,0.035-0.195,0.185-0.193
		c0.609,0.007,1.218,0.007,1.826,0c0.148-0.002,0.19,0.052,0.187,0.193c-0.009,0.455,0.049,0.407-0.412,0.408
		c-0.319,0.001-0.638,0.004-0.957-0.002c-0.098-0.002-0.147,0.01-0.139,0.128c0.012,0.185,0.008,0.371,0.001,0.556
		c-0.004,0.097,0.024,0.128,0.124,0.126c0.365-0.006,0.731,0.003,1.096-0.005c0.167-0.004,0.223,0.056,0.219,0.224
		c-0.01,0.409,0.024,0.364-0.367,0.364c-0.319,0-0.638,0.004-0.957-0.002c-0.093-0.002-0.118,0.026-0.115,0.117
		c0.006,0.214,0.008,0.429,0,0.643c-0.004,0.106,0.039,0.121,0.13,0.12c0.388-0.004,0.777-0.003,1.165-0.001
		c0.212,0.001,0.228,0.017,0.227,0.228c-0.002,0.425,0.046,0.374-0.366,0.375c-0.533,0.002-1.067,0.001-1.6,0
		c-0.244,0-0.244,0-0.244-0.236C14.363,47.741,14.363,47.237,14.363,46.733z"/>
	<path fill="#FFFFFF" d="M25.268,48.547c0.016,0.023,0.022,0.04,0.033,0.049c0.159,0.125,0.249,0.28,0.182,0.484
		c-0.071,0.216-0.261,0.26-0.457,0.282c-0.069,0.008-0.139,0.005-0.208,0c-0.183-0.015-0.253-0.131-0.188-0.303
		c0.029-0.077,0.094-0.049,0.147-0.055c0.115-0.012,0.267,0.034,0.302-0.129c0.033-0.152-0.078-0.244-0.194-0.319
		c-0.038-0.024-0.081-0.047-0.124-0.056c-0.705-0.144-1.086-0.655-1.167-1.393c-0.038-0.346-0.03-0.693,0.057-1.034
		c0.17-0.668,0.626-1.064,1.312-1.119c0.368-0.03,0.728,0.005,1.067,0.173c0.134,0.066,0.18,0.154,0.1,0.291
		c-0.017,0.03-0.028,0.064-0.042,0.095c-0.096,0.217-0.096,0.217-0.331,0.134c-0.229-0.081-0.465-0.1-0.703-0.065
		c-0.362,0.052-0.601,0.256-0.699,0.611c-0.103,0.371-0.105,0.745,0.004,1.114c0.091,0.307,0.292,0.509,0.612,0.574
		c0.296,0.061,0.589,0.055,0.866-0.08c0.128-0.063,0.199-0.032,0.258,0.096c0.166,0.361,0.151,0.406-0.23,0.537
		c-0.098,0.034-0.2,0.055-0.302,0.075C25.469,48.527,25.373,48.534,25.268,48.547z"/>
	<path fill="#FFFFFF" d="M10.724,47.02c0-0.4-0.01-0.801,0.005-1.201c0.006-0.169-0.053-0.205-0.204-0.195
		c-0.179,0.012-0.36-0.001-0.539,0.004c-0.122,0.004-0.182-0.035-0.179-0.168c0.011-0.544-0.065-0.443,0.432-0.447
		c0.638-0.006,1.276,0.002,1.915-0.004c0.141-0.001,0.197,0.038,0.193,0.187c-0.012,0.497,0.059,0.424-0.42,0.433
		c-0.16,0.003-0.373-0.07-0.465,0.031c-0.079,0.088-0.028,0.297-0.028,0.452c-0.001,0.708,0,1.416-0.001,2.123
		c0,0.236-0.011,0.246-0.243,0.246c-0.465,0.001-0.465,0.001-0.465-0.47C10.724,47.681,10.724,47.35,10.724,47.02z"/>
	<path fill="#FFFFFF" d="M68.994,46.741c0-0.51,0.004-1.021-0.002-1.531c-0.002-0.148,0.044-0.215,0.2-0.2
		c0.115,0.01,0.232,0.008,0.348,0c0.125-0.008,0.164,0.052,0.164,0.165c-0.001,1.044-0.001,2.088,0,3.132
		c0,0.119-0.037,0.186-0.171,0.177c-0.121-0.008-0.244-0.008-0.365,0c-0.148,0.01-0.174-0.072-0.173-0.194
		C68.996,47.773,68.994,47.257,68.994,46.741z"/>
	<path fill="#FFFFFF" d="M51.436,46.758c0,0.505-0.003,1.009,0.002,1.514c0.002,0.153-0.044,0.215-0.209,0.214
		c-0.501-0.005-0.501,0.001-0.501-0.492c0-0.916,0-1.833,0-2.749c0-0.231,0.003-0.233,0.232-0.233c0.093,0,0.186,0.008,0.278-0.002
		c0.156-0.016,0.202,0.052,0.2,0.2C51.433,45.726,51.436,46.242,51.436,46.758z"/>
	<path fill="#FFFFFF" d="M30.123,44.78c-0.183,0.001-0.349-0.068-0.518-0.127c-0.092-0.033-0.186-0.064-0.282-0.083
		c-0.077-0.016-0.153-0.006-0.165,0.1c-0.008,0.069-0.056,0.091-0.121,0.099c-0.231,0.027-0.309-0.065-0.243-0.291
		c0.057-0.195,0.204-0.289,0.424-0.276c0.247,0.015,0.466,0.126,0.697,0.196c0.122,0.037,0.214,0.057,0.262-0.114
		c0.038-0.135,0.18-0.056,0.274-0.063c0.08-0.006,0.092,0.072,0.097,0.138C30.568,44.624,30.406,44.784,30.123,44.78z"/>
	<path fill="#FFFFFF" d="M61.008,44.141c0.069,0,0.139-0.003,0.208,0.001c0.042,0.002,0.099-0.021,0.115,0.044
		c0.013,0.051-0.017,0.088-0.052,0.121c-0.138,0.132-0.272,0.269-0.416,0.393c-0.123,0.105-0.277,0.053-0.418,0.049
		c-0.06-0.002-0.057-0.059-0.032-0.108c0.074-0.144,0.146-0.288,0.221-0.432c0.027-0.052,0.074-0.068,0.13-0.068
		C60.846,44.142,60.927,44.142,61.008,44.141z"/>
</g>
</svg>
